<?xml version="1.0" encoding="utf-8"?>
<!-- Designed by Vexels.com - 2016 All Rights Reserved - https://vexels.com/terms-and-conditions/  -->

<svg version="1.0" id="Capa_1" xmlns="http://www.w3.org/2000/svg" xmlns:xlink="http://www.w3.org/1999/xlink" x="0px" y="0px"
	 width="1200px" height="1200px" viewBox="0 0 1200 1200" enable-background="new 0 0 1200 1200" xml:space="preserve">
<path fill="#5FC6CB" d="M1102.031,530.571l-85.307-51.033l0,0h-0.059l-76.696-45.872V253.421H825.956v112.101L640.188,254.436
	c-17.106-10.205-45.189-10.467-62.414-0.434L98.154,531.007c-17.266,9.974-15.048,18.181,4.858,18.181h98.532v404.183h815.181
	V549.188h80.146C1116.821,549.188,1119.125,540.809,1102.031,530.571z M773.602,682.311c0,0,27.169,44.393-14.543,57.529
	c0,0,24.995,38.651-55.151,57.354c0,0-169.788,12.845-177.748-14.757c0,0-7.408-6.583-22.023-7.569
	c-3.913,0.493-7.946,0.665-12.106,0.665h-26.91c-34.898,0-63.212-17.251-63.212-38.68V604.398c0-21.373,28.315-38.74,63.212-38.74
	h26.91c8.465,0,16.571,1.042,23.935,2.928c17.038-22.822,43.28-54.833,61.125-62.025c28.46-11.366,44.307-43.176,46.988-47.959
	c2.64-4.813-3.985-46.163,15.238-49.15c19.181-3.014,39.684-4.813,49.613,37.754c0,0,5.93,40.798-30.432,68.346
	c0,0-13.222,13.222-11.292,18.585c0,0-5.265,16.848,23.864,14.442l68.141,1.74c0,0,50.278,0,51.6,35.405
	c0,0,1.304,29.402-17.863,36.62C772.949,622.344,808.687,656.503,773.602,682.311z"/>
</svg>
